HIERARCHY
ROOT Hips
{
  OFFSET 0.000000 95.000000 0.000000
  CHANNELS 6 Xposition Yposition Zposition Zrotation Xrotation Yrotation
  JOINT Spine
  {
    OFFSET 0.000000 10.000000 0.000000
    CHANNELS 3 Zrotation Xrotation Yrotation
    JOINT Spine1
    {
      OFFSET 0.000000 12.000000 0.000000
      CHANNELS 3 Zrotation Xrotation Yrotation
      JOINT Spine2
      {
        OFFSET 0.000000 12.000000 0.000000
        CHANNELS 3 Zrotation Xrotation Yrotation
        JOINT Neck
        {
          OFFSET 0.000000 10.000000 0.000000
          CHANNELS 3 Zrotation Xrotation Yrotation
          JOINT Head
          {
            OFFSET 0.000000 8.000000 0.000000
            CHANNELS 3 Zrotation Xrotation Yrotation
            End Site
            {
              OFFSET 0.000000 10.000000 0.000000
            }
          }
        }
        JOINT LeftShoulder
        {
          OFFSET 6.000000 8.000000 0.000000
          CHANNELS 3 Zrotation Xrotation Yrotation
          JOINT LeftArm
          {
            OFFSET 12.000000 0.000000 0.000000
            CHANNELS 3 Zrotation Xrotation Yrotation
            JOINT LeftForeArm
            {
              OFFSET 24.000000 0.000000 0.000000
              CHANNELS 3 Zrotation Xrotation Yrotation
              JOINT LeftHand
              {
                OFFSET 22.000000 0.000000 0.000000
                CHANNELS 3 Zrotation Xrotation Yrotation
                JOINT LeftHandThumb1
                {
                  OFFSET 1.800000 -1.400000 0.500000
                  CHANNELS 3 Zrotation Xrotation Yrotation
                  JOINT LeftHandThumb2
                  {
                    OFFSET 2.400000 0.000000 0.000000
                    CHANNELS 3 Zrotation Xrotation Yrotation
                    JOINT LeftHandThumb3
                    {
                      OFFSET 1.900000 0.000000 0.000000
                      CHANNELS 3 Zrotation Xrotation Yrotation
                      End Site
                      {
                        OFFSET 1.600000 0.000000 0.000000
                      }
                    }
                  }
                }
                JOINT LeftHandIndex1
                {
                  OFFSET 6.600000 1.200000 0.300000
                  CHANNELS 3 Zrotation Xrotation Yrotation
                  JOINT LeftHandIndex2
                  {
                    OFFSET 2.000000 0.000000 0.000000
                    CHANNELS 3 Zrotation Xrotation Yrotation
                    JOINT LeftHandIndex3
                    {
                      OFFSET 1.200000 0.000000 0.000000
                      CHANNELS 3 Zrotation Xrotation Yrotation
                      End Site
                      {
                        OFFSET 1.000000 0.000000 0.000000
                      }
                    }
                  }
                }
                JOINT LeftHandMiddle1
                {
                  OFFSET 7.200000 0.000000 0.300000
                  CHANNELS 3 Zrotation Xrotation Yrotation
                  JOINT LeftHandMiddle2
                  {
                    OFFSET 3.000000 0.000000 0.000000
                    CHANNELS 3 Zrotation Xrotation Yrotation
                    JOINT LeftHandMiddle3
                    {
                      OFFSET 2.000000 0.000000 0.000000
                      CHANNELS 3 Zrotation Xrotation Yrotation
                      End Site
                      {
                        OFFSET 1.600000 0.000000 0.000000
                      }
                    }
                  }
                }
                JOINT LeftHandRing1
                {
                  OFFSET 7.100000 -1.000000 0.400000
                  CHANNELS 3 Zrotation Xrotation Yrotation
                  JOINT LeftHandRing2
                  {
                    OFFSET 2.600000 0.000000 0.000000
                    CHANNELS 3 Zrotation Xrotation Yrotation
                    JOINT LeftHandRing3
                    {
                      OFFSET 1.600000 0.000000 0.000000
                      CHANNELS 3 Zrotation Xrotation Yrotation
                      End Site
                      {
                        OFFSET 1.300000 0.000000 0.000000
                      }
                    }
                  }
                }
                JOINT LeftHandPinky1
                {
                  OFFSET 6.500000 -2.000000 0.500000
                  CHANNELS 3 Zrotation Xrotation Yrotation
                  JOINT LeftHandPinky2
                  {
                    OFFSET 1.900000 0.000000 0.000000
                    CHANNELS 3 Zrotation Xrotation Yrotation
                    JOINT LeftHandPinky3
                    {
                      OFFSET 1.400000 0.000000 0.000000
                      CHANNELS 3 Zrotation Xrotation Yrotation
                      End Site
                      {
                        OFFSET 1.300000 0.000000 0.000000
                      }
                    }
                  }
                }
              }
            }
          }
        }
        JOINT RightShoulder
        {
          OFFSET -6.000000 8.000000 0.000000
          CHANNELS 3 Zrotation Xrotation Yrotation
          JOINT RightArm
          {
            OFFSET -12.000000 0.000000 0.000000
            CHANNELS 3 Zrotation Xrotation Yrotation
            JOINT RightForeArm
            {
              OFFSET -24.000000 0.000000 0.000000
              CHANNELS 3 Zrotation Xrotation Yrotation
              JOINT RightHand
              {
                OFFSET -22.000000 0.000000 0.000000
                CHANNELS 3 Zrotation Xrotation Yrotation
                JOINT RightHandThumb1
                {
                  OFFSET -1.800000 -1.400000 0.500000
                  CHANNELS 3 Zrotation Xrotation Yrotation
                  JOINT RightHandThumb2
                  {
                    OFFSET -2.400000 0.000000 0.000000
                    CHANNELS 3 Zrotation Xrotation Yrotation
                    JOINT RightHandThumb3
                    {
                      OFFSET -1.900000 0.000000 0.000000
                      CHANNELS 3 Zrotation Xrotation Yrotation
                      End Site
                      {
                        OFFSET -1.600000 0.000000 0.000000
                      }
                    }
                  }
                }
                JOINT RightHandIndex1
                {
                  OFFSET -6.600000 1.200000 0.300000
                  CHANNELS 3 Zrotation Xrotation Yrotation
                  JOINT RightHandIndex2
                  {
                    OFFSET -2.000000 0.000000 0.000000
                    CHANNELS 3 Zrotation Xrotation Yrotation
                    JOINT RightHandIndex3
                    {
                      OFFSET -1.200000 0.000000 0.000000
                      CHANNELS 3 Zrotation Xrotation Yrotation
                      End Site
                      {
                        OFFSET -1.000000 0.000000 0.000000
                      }
                    }
                  }
                }
                JOINT RightHandMiddle1
                {
                  OFFSET -7.200000 0.000000 0.300000
                  CHANNELS 3 Zrotation Xrotation Yrotation
                  JOINT RightHandMiddle2
                  {
                    OFFSET -3.000000 0.000000 0.000000
                    CHANNELS 3 Zrotation Xrotation Yrotation
                    JOINT RightHandMiddle3
                    {
                      OFFSET -2.000000 0.000000 0.000000
                      CHANNELS 3 Zrotation Xrotation Yrotation
                      End Site
                      {
                        OFFSET -1.600000 0.000000 0.000000
                      }
                    }
                  }
                }
                JOINT RightHandRing1
                {
                  OFFSET -7.100000 -1.000000 0.400000
                  CHANNELS 3 Zrotation Xrotation Yrotation
                  JOINT RightHandRing2
                  {
                    OFFSET -2.600000 0.000000 0.000000
                    CHANNELS 3 Zrotation Xrotation Yrotation
                    JOINT RightHandRing3
                    {
                      OFFSET -1.600000 0.000000 0.000000
                      CHANNELS 3 Zrotation Xrotation Yrotation
                      End Site
                      {
                        OFFSET -1.300000 0.000000 0.000000
                      }
                    }
                  }
                }
                JOINT RightHandPinky1
                {
                  OFFSET -6.500000 -2.000000 0.500000
                  CHANNELS 3 Zrotation Xrotation Yrotation
                  JOINT RightHandPinky2
                  {
                    OFFSET -1.900000 0.000000 0.000000
                    CHANNELS 3 Zrotation Xrotation Yrotation
                    JOINT RightHandPinky3
                    {
                      OFFSET -1.400000 0.000000 0.000000
                      CHANNELS 3 Zrotation Xrotation Yrotation
                      End Site
                      {
                        OFFSET -1.300000 0.000000 0.000000
                      }
                    }
                  }
                }
              }
            }
          }
        }
      }
    }
  }
  JOINT LeftUpLeg
  {
    OFFSET 10.000000 -5.000000 0.000000
    CHANNELS 3 Zrotation Xrotation Yrotation
    JOINT LeftLeg
    {
      OFFSET 0.000000 -42.000000 0.000000
      CHANNELS 3 Zrotation Xrotation Yrotation
      JOINT LeftFoot
      {
        OFFSET 0.000000 -42.000000 4.000000
        CHANNELS 3 Zrotation Xrotation Yrotation
        End Site
        {
          OFFSET 0.000000 0.000000 12.000000
        }
      }
    }
  }
  JOINT RightUpLeg
  {
    OFFSET -10.000000 -5.000000 0.000000
    CHANNELS 3 Zrotation Xrotation Yrotation
    JOINT RightLeg
    {
      OFFSET 0.000000 -42.000000 0.000000
      CHANNELS 3 Zrotation Xrotation Yrotation
      JOINT RightFoot
      {
        OFFSET 0.000000 -42.000000 4.000000
        CHANNELS 3 Zrotation Xrotation Yrotation
        End Site
        {
          OFFSET 0.000000 0.000000 12.000000
        }
      }
    }
  }
}
MOTION
Frames: 8
Frame Time: 0.033333
0.0000 95.0000 0.0000 0.0000 0.0000 0.0000 0.0000 0.0000 0.0000 0.0000 0.0000 0.0000 0.0000 0.0000 0.0000 0.0000 0.0000 0.0000 0.0000 0.0000 0.0000 0.0000 0.0000 0.0000 -71.5400 -4.2409 -5.8842 -68.6993 39.3648 -166.8323 -19.7697 -7.0016 350.1759 70.2894 -14.7613 -14.7929 45.0106 0.0000 0.0000 9.3461 0.0000 0.0000 -21.0886 0.8820 -12.3015 18.9979 0.0000 0.0000 1.1887 0.0000 0.0000 8.7648 0.9537 -17.1673 86.0644 0.0000 0.0000 36.9755 0.0000 0.0000 20.0585 -0.3881 -20.3375 92.4138 0.0000 0.0000 34.0615 0.0000 0.0000 25.9072 -3.3871 -20.9865 89.5744 0.0000 0.0000 33.2412 0.0000 0.0000 0.0000 0.0000 0.0000 73.1290 -17.8582 23.9204 200.1418 67.9275 295.0247 314.1374 20.1499 -430.3757 -45.7345 -7.8890 -8.6841 10.7221 0.0000 0.0000 4.6531 0.0000 0.0000 11.7667 0.8597 4.3212 4.8592 0.0000 0.0000 2.5642 0.0000 0.0000 -5.2945 0.9010 24.0738 133.7407 0.0000 0.0000 12.1167 0.0000 0.0000 -19.2684 -0.0913 33.6254 128.1939 0.0000 0.0000 13.9869 0.0000 0.0000 -32.5309 -2.6851 24.7319 121.9306 0.0000 0.0000 18.4532 0.0000 0.0000 0.0000 0.0000 0.0000 0.0000 0.0000 0.0000 0.0000 0.0000 0.0000 0.0000 0.0000 0.0000 0.0000 0.0000 0.0000 0.0000 0.0000 0.0000
0.0000 95.0000 0.0000 0.0000 0.0000 0.0000 0.0000 0.0000 0.0000 0.0000 0.0000 0.0000 0.0000 0.0000 0.0000 0.0000 0.0000 0.0000 0.0000 0.0000 0.0000 0.0000 0.0000 0.0000 -71.3237 -3.6573 -5.0952 -58.8222 23.9568 -126.2805 -32.3727 30.9637 347.0740 66.3148 -14.3554 -10.7867 38.4533 0.0000 0.0000 10.9147 0.0000 0.0000 -11.5451 1.1663 -8.2244 32.5662 0.0000 0.0000 9.5129 0.0000 0.0000 14.8458 1.2811 -14.5816 87.2928 0.0000 0.0000 26.4192 0.0000 0.0000 26.6740 0.2819 -18.7894 94.5514 0.0000 0.0000 27.7292 0.0000 0.0000 28.1323 -2.9639 -17.7109 92.6957 0.0000 0.0000 29.0789 0.0000 0.0000 0.0000 0.0000 0.0000 73.4638 -17.7488 23.6352 201.0847 69.2869 295.1457 301.7863 27.9327 -435.1148 -53.6916 -10.4220 -6.2703 9.4859 0.0000 0.0000 6.2270 0.0000 0.0000 2.5248 1.1626 6.5992 7.0945 0.0000 0.0000 4.2225 0.0000 0.0000 -25.5270 7.6786 37.7760 119.9545 0.0000 0.0000 12.4435 0.0000 0.0000 -34.2115 4.9700 41.6885 121.0329 0.0000 0.0000 14.3485 0.0000 0.0000 -43.9178 -0.8205 26.8943 122.3037 0.0000 0.0000 18.6789 0.0000 0.0000 0.0000 0.0000 0.0000 0.0000 0.0000 0.0000 0.0000 0.0000 0.0000 0.0000 0.0000 0.0000 0.0000 0.0000 0.0000 0.0000 0.0000 0.0000
0.0000 95.0000 0.0000 0.0000 0.0000 0.0000 0.0000 0.0000 0.0000 0.0000 0.0000 0.0000 0.0000 0.0000 0.0000 0.0000 0.0000 0.0000 0.0000 0.0000 0.0000 0.0000 0.0000 0.0000 -71.2050 -3.2086 -4.4802 -57.3151 15.6807 -102.6714 -33.7301 53.5549 348.7299 69.1479 -14.7123 -14.8238 35.3575 0.0000 0.0000 6.6787 0.0000 0.0000 -6.7963 1.6296 -10.9521 38.3579 0.0000 0.0000 7.6764 0.0000 0.0000 18.2113 1.8596 -16.3363 96.4781 0.0000 0.0000 30.1200 0.0000 0.0000 25.0159 0.1623 -19.5757 101.3465 0.0000 0.0000 26.3817 0.0000 0.0000 25.7273 -3.1422 -17.3600 97.7655 0.0000 0.0000 29.4167 0.0000 0.0000 0.0000 0.0000 0.0000 73.8235 -17.2224 22.7968 200.4564 71.1127 294.3106 296.0871 28.0105 -438.1181 -53.0832 -10.1459 -6.9888 11.0728 0.0000 0.0000 1.4108 0.0000 0.0000 -0.5617 1.4456 7.8842 1.0005 0.0000 0.0000 3.3821 0.0000 0.0000 -18.2036 4.3817 31.6327 129.2571 0.0000 0.0000 10.0497 0.0000 0.0000 -28.0407 2.4059 36.7863 129.5735 0.0000 0.0000 11.8837 0.0000 0.0000 -41.1195 -1.2458 27.5514 126.3487 0.0000 0.0000 15.5613 0.0000 0.0000 0.0000 0.0000 0.0000 0.0000 0.0000 0.0000 0.0000 0.0000 0.0000 0.0000 0.0000 0.0000 0.0000 0.0000 0.0000 0.0000 0.0000 0.0000
0.0000 95.0000 0.0000 0.0000 0.0000 0.0000 0.0000 0.0000 0.0000 0.0000 0.0000 0.0000 0.0000 0.0000 0.0000 0.0000 0.0000 0.0000 0.0000 0.0000 0.0000 0.0000 0.0000 0.0000 -70.9091 -2.7934 -3.9221 -57.3196 11.8961 -90.2885 -27.5389 65.0414 351.2296 68.7238 -14.7074 -15.1923 35.3462 0.0000 0.0000 8.7198 0.0000 0.0000 -7.9625 1.6475 -11.6652 39.9922 0.0000 0.0000 11.1063 0.0000 0.0000 14.8122 1.7898 -18.4762 91.0332 0.0000 0.0000 27.5981 0.0000 0.0000 20.5072 -0.3069 -20.9838 96.1975 0.0000 0.0000 23.4274 0.0000 0.0000 19.4639 -3.6262 -17.1206 92.6269 0.0000 0.0000 28.3004 0.0000 0.0000 0.0000 0.0000 0.0000 74.3607 -17.0819 22.3991 201.1144 70.0786 295.3754 309.0256 23.1945 -430.1396 -48.4638 -8.3744 -9.7391 10.3793 0.0000 0.0000 5.7062 0.0000 0.0000 6.8568 0.8803 4.7506 6.0688 0.0000 0.0000 3.2722 0.0000 0.0000 -19.0300 5.3960 36.1782 123.0171 0.0000 0.0000 11.6427 0.0000 0.0000 -32.0397 5.2695 48.0549 113.0730 0.0000 0.0000 12.9351 0.0000 0.0000 -43.3503 0.1570 39.4125 106.7525 0.0000 0.0000 14.6856 0.0000 0.0000 0.0000 0.0000 0.0000 0.0000 0.0000 0.0000 0.0000 0.0000 0.0000 0.0000 0.0000 0.0000 0.0000 0.0000 0.0000 0.0000 0.0000 0.0000
0.0000 95.0000 0.0000 0.0000 0.0000 0.0000 0.0000 0.0000 0.0000 0.0000 0.0000 0.0000 0.0000 0.0000 0.0000 0.0000 0.0000 0.0000 0.0000 0.0000 0.0000 0.0000 0.0000 0.0000 -70.5435 -2.1693 -3.0667 -57.8125 9.8717 -83.5305 -19.9293 70.6765 356.5567 67.3742 -14.6532 -15.2015 33.2139 0.0000 0.0000 6.7852 0.0000 0.0000 -8.4685 1.7328 -12.7459 40.8846 0.0000 0.0000 12.0969 0.0000 0.0000 13.0955 1.7724 -20.1226 90.8460 0.0000 0.0000 26.8482 0.0000 0.0000 17.9946 -0.6064 -22.3284 95.9419 0.0000 0.0000 23.1305 0.0000 0.0000 15.9741 -3.9073 -17.1137 91.1298 0.0000 0.0000 28.3818 0.0000 0.0000 0.0000 0.0000 0.0000 74.1947 -17.4689 22.9682 206.8441 71.2369 299.1008 307.8833 20.7876 -429.9937 -47.9137 -8.1618 -9.9938 10.3388 0.0000 0.0000 4.2610 0.0000 0.0000 8.2407 0.8374 4.3211 4.5090 0.0000 0.0000 3.0037 0.0000 0.0000 -15.4673 3.9205 33.0626 125.7617 0.0000 0.0000 10.8630 0.0000 0.0000 -27.9416 2.9002 41.3706 119.9324 0.0000 0.0000 12.5416 0.0000 0.0000 -36.2374 -2.0257 30.5948 116.2146 0.0000 0.0000 15.0385 0.0000 0.0000 0.0000 0.0000 0.0000 0.0000 0.0000 0.0000 0.0000 0.0000 0.0000 0.0000 0.0000 0.0000 0.0000 0.0000 0.0000 0.0000 0.0000 0.0000
0.0000 95.0000 0.0000 0.0000 0.0000 0.0000 0.0000 0.0000 0.0000 0.0000 0.0000 0.0000 0.0000 0.0000 0.0000 0.0000 0.0000 0.0000 0.0000 0.0000 0.0000 0.0000 0.0000 0.0000 -70.6070 -1.4484 -2.0453 -58.1100 9.2685 -79.0095 -13.5421 78.6363 354.1903 67.4118 -14.7236 -16.6309 36.7118 0.0000 0.0000 5.7092 0.0000 0.0000 -11.6805 1.4381 -11.7630 41.9223 0.0000 0.0000 13.9318 0.0000 0.0000 11.9075 1.4952 -19.0358 88.5416 0.0000 0.0000 25.6005 0.0000 0.0000 17.0932 -0.7343 -22.2032 93.6259 0.0000 0.0000 24.9977 0.0000 0.0000 17.2718 -4.0991 -19.1180 92.7646 0.0000 0.0000 28.9442 0.0000 0.0000 0.0000 0.0000 0.0000 74.0884 -17.5882 23.1668 207.0293 72.2569 298.6493 298.5924 25.5713 -436.9259 -52.8808 -9.8361 -8.3836 10.0073 0.0000 0.0000 6.0547 0.0000 0.0000 -0.7072 1.1454 6.2659 0.4268 0.0000 0.0000 2.8430 0.0000 0.0000 -23.2743 5.9010 32.8731 125.4194 0.0000 0.0000 9.6564 0.0000 0.0000 -33.8556 5.0756 42.9659 119.8297 0.0000 0.0000 11.9016 0.0000 0.0000 -40.3245 -1.3481 28.1649 122.1043 0.0000 0.0000 13.4747 0.0000 0.0000 0.0000 0.0000 0.0000 0.0000 0.0000 0.0000 0.0000 0.0000 0.0000 0.0000 0.0000 0.0000 0.0000 0.0000 0.0000 0.0000 0.0000 0.0000
0.0000 95.0000 0.0000 0.0000 0.0000 0.0000 0.0000 0.0000 0.0000 0.0000 0.0000 0.0000 0.0000 0.0000 0.0000 0.0000 0.0000 0.0000 0.0000 0.0000 0.0000 0.0000 0.0000 0.0000 -70.5097 -1.5176 -2.1469 -56.6880 10.1665 -78.0602 -19.0521 75.6684 349.3865 67.0533 -14.7116 -16.5940 33.9015 0.0000 0.0000 6.8757 0.0000 0.0000 -9.1242 1.7205 -13.0670 42.7118 0.0000 0.0000 13.4586 0.0000 0.0000 15.5720 2.0584 -19.7418 83.6286 0.0000 0.0000 25.8672 0.0000 0.0000 20.5262 -0.2251 -22.9486 90.5273 0.0000 0.0000 24.6941 0.0000 0.0000 20.7572 -3.8472 -19.8954 88.4650 0.0000 0.0000 27.6686 0.0000 0.0000 0.0000 0.0000 0.0000 74.4889 -17.5236 22.9201 206.8225 72.2909 298.3764 298.9569 24.6091 -435.5943 -51.9707 -9.5130 -8.8332 9.8683 0.0000 0.0000 5.0452 0.0000 0.0000 2.8395 1.0189 5.7057 3.3929 0.0000 0.0000 2.5933 0.0000 0.0000 -23.0766 5.9522 33.3469 124.1289 0.0000 0.0000 10.8302 0.0000 0.0000 -33.7913 5.0133 42.7323 118.5934 0.0000 0.0000 12.0881 0.0000 0.0000 -38.1805 -1.7387 27.9114 119.9957 0.0000 0.0000 13.7807 0.0000 0.0000 0.0000 0.0000 0.0000 0.0000 0.0000 0.0000 0.0000 0.0000 0.0000 0.0000 0.0000 0.0000 0.0000 0.0000 0.0000 0.0000 0.0000 0.0000
0.0000 95.0000 0.0000 0.0000 0.0000 0.0000 0.0000 0.0000 0.0000 0.0000 0.0000 0.0000 0.0000 0.0000 0.0000 0.0000 0.0000 0.0000 0.0000 0.0000 0.0000 0.0000 0.0000 0.0000 -70.6147 -1.2966 -1.8307 -56.9362 9.8277 -76.2103 -24.6630 81.8273 338.7132 68.6243 -14.7673 -16.8767 39.8253 0.0000 0.0000 5.7064 0.0000 0.0000 -14.5409 1.2885 -12.1249 44.6534 0.0000 0.0000 16.3371 0.0000 0.0000 9.0623 1.0580 -18.0625 88.3730 0.0000 0.0000 28.8015 0.0000 0.0000 15.1661 -0.9967 -21.3257 92.4834 0.0000 0.0000 26.8828 0.0000 0.0000 16.4452 -4.1514 -18.9288 90.9497 0.0000 0.0000 30.0544 0.0000 0.0000 0.0000 0.0000 0.0000 74.9293 -17.5078 22.7226 207.4255 72.0578 298.8243 303.2326 22.0639 -433.3151 -48.1239 -8.2133 -10.0240 10.8949 0.0000 0.0000 3.9629 0.0000 0.0000 7.5874 0.8581 4.5393 4.8352 0.0000 0.0000 2.1716 0.0000 0.0000 -14.5247 3.3653 30.7341 128.9090 0.0000 0.0000 10.8294 0.0000 0.0000 -25.9063 1.9469 38.1501 125.2289 0.0000 0.0000 11.3480 0.0000 0.0000 -25.9218 -4.0234 29.7932 117.0404 0.0000 0.0000 10.9747 0.0000 0.0000 0.0000 0.0000 0.0000 0.0000 0.0000 0.0000 0.0000 0.0000 0.0000 0.0000 0.0000 0.0000 0.0000 0.0000 0.0000 0.0000 0.0000 0.0000
